<svg width="20" height="19" viewBox="0 0 20 19" fill="none" xmlns="http://www.w3.org/2000/svg">
<path d="M13.2163 7.41535C13.2163 6.11939 12.7015 4.8765 11.7851 3.96012C10.8687 3.04373 9.62581 2.52891 8.32984 2.52891C7.03388 2.52891 5.791 3.04373 4.87461 3.96012C3.95823 4.8765 3.44341 6.11939 3.44341 7.41535C3.44341 13.1162 1.00019 14.745 1.00019 14.745H15.6595C15.6595 14.745 13.2163 13.1162 13.2163 7.41535Z" stroke="white" stroke-width="2" stroke-linecap="round" stroke-linejoin="round"/>
<path d="M9.73857 17.1883C9.59539 17.4352 9.38987 17.64 9.14261 17.7825C8.89534 17.9249 8.615 17.9998 8.32965 17.9998C8.04429 17.9998 7.76395 17.9249 7.51668 17.7825C7.26942 17.64 7.0639 17.4352 6.92072 17.1883" stroke="white" stroke-width="2" stroke-linecap="round" stroke-linejoin="round"/>
<circle cx="17.4383" cy="2.03602" r="2.03602" fill="#FF5C5C"/>
</svg>
