<svg width="52" height="16" viewBox="0 0 52 16" fill="none" xmlns="http://www.w3.org/2000/svg">
<path d="M7.3596 14.7192C11.4242 14.7192 14.7192 11.4242 14.7192 7.3596C14.7192 3.29501 11.4242 0 7.3596 0C3.29501 0 0 3.29501 0 7.3596C0 11.4242 3.29501 14.7192 7.3596 14.7192Z" fill="#64BAB3"/>
<g clip-path="url(#clip0_212_311)">
<path d="M11.7136 6.93594C10.7867 5.54589 9.67892 4.25952 7.86408 4.25952C6.04924 4.25952 4.94143 5.54589 4.01457 6.93594C3.96081 7.0167 3.93213 7.11155 3.93213 7.20857C3.93213 7.30559 3.96081 7.40044 4.01457 7.4812C4.94143 8.87125 6.04924 10.1576 7.86408 10.1576C9.67892 10.1576 10.7867 8.87125 11.7136 7.4812C11.7673 7.40044 11.796 7.30559 11.796 7.20857C11.796 7.11155 11.7673 7.0167 11.7136 6.93594ZM7.86408 9.1746C6.82106 9.1746 6.007 8.61834 5.01871 7.20857C6.007 5.79885 6.82106 5.24254 7.86408 5.24254C8.90709 5.24254 9.72115 5.79885 10.7094 7.20857C9.72115 8.61834 8.90709 9.1746 7.86408 9.1746Z" fill="white"/>
<path d="M7.86385 6.22559C7.66943 6.22559 7.47938 6.28324 7.31773 6.39125C7.15608 6.49926 7.03009 6.65278 6.95569 6.8324C6.88129 7.01202 6.86182 7.20966 6.89975 7.40034C6.93768 7.59102 7.0313 7.76618 7.16877 7.90365C7.30624 8.04112 7.48139 8.13474 7.67208 8.17267C7.86276 8.2106 8.0604 8.19113 8.24002 8.11673C8.41964 8.04233 8.57316 7.91634 8.68117 7.75469C8.78918 7.59304 8.84683 7.40299 8.84683 7.20857C8.84648 6.94798 8.74281 6.69815 8.55854 6.51388C8.37427 6.32961 8.12444 6.22593 7.86385 6.22559Z" fill="white"/>
</g>
<g clip-path="url(#clip1_212_311)">
<path d="M26.2004 14.8957C30.265 14.8957 33.56 11.6007 33.56 7.53612C33.56 3.47152 30.265 0.176514 26.2004 0.176514C22.1358 0.176514 18.8408 3.47152 18.8408 7.53612C18.8408 11.6007 22.1358 14.8957 26.2004 14.8957Z" fill="#64BAB3"/>
<g clip-path="url(#clip2_212_311)">
<path d="M26.8687 5.36546V3.27661H23.7968C23.5926 3.27661 23.4282 3.44095 23.4282 3.64523V10.7719C23.4282 10.9762 23.5926 11.1405 23.7968 11.1405H28.9575C29.1618 11.1405 29.3261 10.9762 29.3261 10.7719V5.73408H27.2373C27.0346 5.73408 26.8687 5.5682 26.8687 5.36546ZM28.0429 8.61177L26.562 10.0816C26.4598 10.1832 26.2949 10.1832 26.1927 10.0816L24.7118 8.61177C24.5559 8.45711 24.6653 8.19155 24.8846 8.19155H25.8857V6.96281C25.8857 6.82704 25.9957 6.71707 26.1314 6.71707H26.6229C26.7587 6.71707 26.8687 6.82704 26.8687 6.96281V8.19155H27.8698C28.0891 8.19155 28.1985 8.45711 28.0429 8.61177ZM29.2186 4.88932L27.715 3.38413C27.6459 3.31501 27.5522 3.27661 27.4539 3.27661H27.3602V5.24258H29.3261V5.14889C29.3261 5.05213 29.2877 4.95844 29.2186 4.88932Z" fill="white"/>
</g>
</g>
<path d="M44.4641 14.8957C48.5287 14.8957 51.8237 11.6007 51.8237 7.53612C51.8237 3.47152 48.5287 0.176514 44.4641 0.176514C40.3995 0.176514 37.1045 3.47152 37.1045 7.53612C37.1045 11.6007 40.3995 14.8957 44.4641 14.8957Z" fill="#64BAB3"/>
<g clip-path="url(#clip3_212_311)">
<path d="M48.1391 6.42254L46.1648 4.59177C45.9921 4.43183 45.72 4.56181 45.72 4.81088V5.79329C43.8516 5.81489 42.3705 6.19204 42.3705 7.9738C42.3705 8.69312 42.8311 9.40583 43.3398 9.77808C43.4986 9.8944 43.7247 9.74843 43.6661 9.56003C43.1385 7.86252 44.0452 7.48895 45.72 7.47702V8.45997C45.72 8.70929 45.9926 8.83871 46.1651 8.67869L48.1394 6.84791C48.2634 6.74445 48.2634 6.53779 48.1391 6.42254ZM46.1386 9.60851C45.9074 9.60851 45.72 9.79835 45.72 10.0324V10.4444L41.5332 10.4444V6.21721H41.9518C42.183 6.21721 42.3705 6.02751 42.3705 5.79329C42.3705 5.55908 42.1834 5.36938 41.9518 5.36938H41.5332C41.0706 5.36938 40.6958 5.74892 40.6958 6.21721V10.4444C40.6958 10.9126 41.0706 11.2922 41.5332 11.2922L45.72 11.2922C46.1825 11.2922 46.5573 10.9126 46.5573 10.4444V10.0324C46.5573 9.79795 46.3702 9.60851 46.1386 9.60851Z" fill="white"/>
</g>
<defs>
<clipPath id="clip0_212_311">
<rect width="7.86389" height="7.86389" fill="white" transform="translate(3.93213 3.27661)"/>
</clipPath>
<clipPath id="clip1_212_311">
<rect width="15.0725" height="15.0725" fill="white" transform="translate(18.8408)"/>
</clipPath>
<clipPath id="clip2_212_311">
<rect width="5.89792" height="7.86389" fill="white" transform="translate(23.4282 3.27661)"/>
</clipPath>
<clipPath id="clip3_212_311">
<rect width="7.53623" height="6.78261" fill="white" transform="translate(40.6958 4.52173)"/>
</clipPath>
</defs>
</svg>
