<svg width="116" height="20" viewBox="0 0 116 20" fill="none" xmlns="http://www.w3.org/2000/svg">
<rect x="72" width="20" height="20" fill="#FF3722"/>
<rect x="24" width="20" height="20" fill="#FF3722"/>
<rect width="20" height="20" fill="#FF3722"/>
<rect x="96" width="20" height="20" fill="#D9D9D9"/>
<rect x="48" width="20" height="20" fill="#FF3722"/>
<path d="M17.7742 8.73252H11.7506L9.88996 3L8.02361 8.73252L2 8.72681L6.87825 12.2732L5.01171 18L9.88996 14.4593L14.7623 18L12.9017 12.2732L17.7742 8.73252Z" fill="white"/>
<path d="M13.3227 13.5817L12.9034 12.2903L9.88721 14.4677L13.3227 13.5817Z" fill="#D5D5D5"/>
<path d="M41.7742 8.73252H35.7506L33.89 3L32.0236 8.73252L26 8.72681L30.8782 12.2732L29.0117 18L33.89 14.4593L38.7623 18L36.9017 12.2732L41.7742 8.73252Z" fill="white"/>
<path d="M37.3227 13.5817L36.9034 12.2903L33.8872 14.4677L37.3227 13.5817Z" fill="#D5D5D5"/>
<path d="M65.7742 8.73252H59.7506L57.89 3L56.0236 8.73252L50 8.72681L54.8782 12.2732L53.0117 18L57.89 14.4593L62.7623 18L60.9017 12.2732L65.7742 8.73252Z" fill="white"/>
<path d="M61.3227 13.5817L60.9034 12.2903L57.8872 14.4677L61.3227 13.5817Z" fill="#D5D5D5"/>
<path d="M89.7742 8.73252H83.7506L81.89 3L80.0236 8.73252L74 8.72681L78.8782 12.2732L77.0117 18L81.89 14.4593L86.7623 18L84.9017 12.2732L89.7742 8.73252Z" fill="white"/>
<path d="M85.3227 13.5817L84.9034 12.2903L81.8872 14.4677L85.3227 13.5817Z" fill="#D5D5D5"/>
<path d="M113.774 8.73252H107.751L105.89 3L104.024 8.73252L98 8.72681L102.878 12.2732L101.012 18L105.89 14.4593L110.762 18L108.902 12.2732L113.774 8.73252Z" fill="white"/>
<path d="M109.323 13.5817L108.903 12.2903L105.887 14.4677L109.323 13.5817Z" fill="#D5D5D5"/>
</svg>
