<svg width="6" height="6" viewBox="0 0 6 6" fill="none" xmlns="http://www.w3.org/2000/svg">
<path fill-rule="evenodd" clip-rule="evenodd" d="M1.66648 0C1.85057 0 1.99981 0.14924 1.99981 0.333333V0.666713H4V0.333333C4 0.14924 4.14923 0 4.33333 0C4.51743 0 4.66667 0.14924 4.66667 0.333333L4.66667 0.666713C5.40303 0.666713 6 1.26367 6 2.00005V4.66671C6 5.40308 5.40303 6.00005 4.66667 6.00005H1.33333C0.596953 6.00005 0 5.40308 0 4.66671V2.00005C0 1.26373 0.596853 0.666814 1.33315 0.666713V0.333333C1.33315 0.14924 1.48239 0 1.66648 0ZM1.33333 1.33338C0.965143 1.33338 0.666667 1.63186 0.666667 2.00005V4.66671C0.666667 5.03491 0.965143 5.33338 1.33333 5.33338H4.66667C5.03487 5.33338 5.33333 5.03491 5.33333 4.66671V2.00005C5.33333 1.63186 5.03487 1.33338 4.66667 1.33338H1.33333ZM1.99981 2.33333C1.99981 2.51743 1.85057 2.66667 1.66648 2.66667C1.48239 2.66667 1.33315 2.51743 1.33315 2.33333C1.33315 2.14924 1.48239 2 1.66648 2C1.85057 2 1.99981 2.14924 1.99981 2.33333ZM3.00019 2.66667C3.18429 2.66667 3.33352 2.51743 3.33352 2.33333C3.33352 2.14924 3.18429 2 3.00019 2C2.81609 2 2.66685 2.14924 2.66685 2.33333C2.66685 2.51743 2.81609 2.66667 3.00019 2.66667ZM4.66667 2.33333C4.66667 2.51743 4.51743 2.66667 4.33333 2.66667C4.14923 2.66667 4 2.51743 4 2.33333C4 2.14924 4.14923 2 4.33333 2C4.51743 2 4.66667 2.14924 4.66667 2.33333ZM1.66648 3.99995C1.85057 3.99995 1.99981 3.85072 1.99981 3.66662C1.99981 3.48252 1.85057 3.33329 1.66648 3.33329C1.48239 3.33329 1.33315 3.48252 1.33315 3.66662C1.33315 3.85072 1.48239 3.99995 1.66648 3.99995Z" fill="white"/>
</svg>
