<svg width="15" height="15" viewBox="0 0 15 15" fill="none" xmlns="http://www.w3.org/2000/svg">
<path d="M7.5 11.875C7.62361 11.875 7.74445 11.8383 7.84723 11.7697C7.95001 11.701 8.03012 11.6034 8.07743 11.4892C8.12473 11.375 8.13711 11.2493 8.11299 11.1281C8.08888 11.0068 8.02935 10.8955 7.94194 10.8081C7.85453 10.7206 7.74317 10.6611 7.62193 10.637C7.50069 10.6129 7.37503 10.6253 7.26082 10.6726C7.14662 10.7199 7.04901 10.8 6.98033 10.9028C6.91166 11.0055 6.875 11.1264 6.875 11.25C6.875 11.4158 6.94085 11.5747 7.05806 11.6919C7.17527 11.8092 7.33424 11.875 7.5 11.875ZM10.625 11.875C10.7486 11.875 10.8695 11.8383 10.9722 11.7697C11.075 11.701 11.1551 11.6034 11.2024 11.4892C11.2497 11.375 11.2621 11.2493 11.238 11.1281C11.2139 11.0068 11.1544 10.8955 11.0669 10.8081C10.9795 10.7206 10.8682 10.6611 10.7469 10.637C10.6257 10.6129 10.5 10.6253 10.3858 10.6726C10.2716 10.7199 10.174 10.8 10.1053 10.9028C10.0367 11.0055 10 11.1264 10 11.25C10 11.4158 10.0658 11.5747 10.1831 11.6919C10.3003 11.8092 10.4592 11.875 10.625 11.875ZM10.625 9.375C10.7486 9.375 10.8695 9.33834 10.9722 9.26967C11.075 9.20099 11.1551 9.10338 11.2024 8.98918C11.2497 8.87497 11.2621 8.74931 11.238 8.62807C11.2139 8.50683 11.1544 8.39547 11.0669 8.30806C10.9795 8.22065 10.8682 8.16112 10.7469 8.13701C10.6257 8.11289 10.5 8.12527 10.3858 8.17257C10.2716 8.21988 10.174 8.29999 10.1053 8.40277C10.0367 8.50555 10 8.62639 10 8.75C10 8.91576 10.0658 9.07473 10.1831 9.19194C10.3003 9.30915 10.4592 9.375 10.625 9.375ZM7.5 9.375C7.62361 9.375 7.74445 9.33834 7.84723 9.26967C7.95001 9.20099 8.03012 9.10338 8.07743 8.98918C8.12473 8.87497 8.13711 8.74931 8.11299 8.62807C8.08888 8.50683 8.02935 8.39547 7.94194 8.30806C7.85453 8.22065 7.74317 8.16112 7.62193 8.13701C7.50069 8.11289 7.37503 8.12527 7.26082 8.17257C7.14662 8.21988 7.04901 8.29999 6.98033 8.40277C6.91166 8.50555 6.875 8.62639 6.875 8.75C6.875 8.91576 6.94085 9.07473 7.05806 9.19194C7.17527 9.30915 7.33424 9.375 7.5 9.375ZM11.875 1.875H11.25V1.25C11.25 1.08424 11.1842 0.925268 11.0669 0.808058C10.9497 0.690848 10.7908 0.625 10.625 0.625C10.4592 0.625 10.3003 0.690848 10.1831 0.808058C10.0658 0.925268 10 1.08424 10 1.25V1.875H5V1.25C5 1.08424 4.93415 0.925268 4.81694 0.808058C4.69973 0.690848 4.54076 0.625 4.375 0.625C4.20924 0.625 4.05027 0.690848 3.93306 0.808058C3.81585 0.925268 3.75 1.08424 3.75 1.25V1.875H3.125C2.62772 1.875 2.15081 2.07254 1.79917 2.42417C1.44754 2.77581 1.25 3.25272 1.25 3.75V12.5C1.25 12.9973 1.44754 13.4742 1.79917 13.8258C2.15081 14.1775 2.62772 14.375 3.125 14.375H11.875C12.3723 14.375 12.8492 14.1775 13.2008 13.8258C13.5525 13.4742 13.75 12.9973 13.75 12.5V3.75C13.75 3.25272 13.5525 2.77581 13.2008 2.42417C12.8492 2.07254 12.3723 1.875 11.875 1.875ZM12.5 12.5C12.5 12.6658 12.4342 12.8247 12.3169 12.9419C12.1997 13.0592 12.0408 13.125 11.875 13.125H3.125C2.95924 13.125 2.80027 13.0592 2.68306 12.9419C2.56585 12.8247 2.5 12.6658 2.5 12.5V6.875H12.5V12.5ZM12.5 5.625H2.5V3.75C2.5 3.58424 2.56585 3.42527 2.68306 3.30806C2.80027 3.19085 2.95924 3.125 3.125 3.125H3.75V3.75C3.75 3.91576 3.81585 4.07473 3.93306 4.19194C4.05027 4.30915 4.20924 4.375 4.375 4.375C4.54076 4.375 4.69973 4.30915 4.81694 4.19194C4.93415 4.07473 5 3.91576 5 3.75V3.125H10V3.75C10 3.91576 10.0658 4.07473 10.1831 4.19194C10.3003 4.30915 10.4592 4.375 10.625 4.375C10.7908 4.375 10.9497 4.30915 11.0669 4.19194C11.1842 4.07473 11.25 3.91576 11.25 3.75V3.125H11.875C12.0408 3.125 12.1997 3.19085 12.3169 3.30806C12.4342 3.42527 12.5 3.58424 12.5 3.75V5.625ZM4.375 9.375C4.49861 9.375 4.61945 9.33834 4.72223 9.26967C4.82501 9.20099 4.90512 9.10338 4.95242 8.98918C4.99973 8.87497 5.01211 8.74931 4.98799 8.62807C4.96388 8.50683 4.90435 8.39547 4.81694 8.30806C4.72953 8.22065 4.61817 8.16112 4.49693 8.13701C4.37569 8.11289 4.25003 8.12527 4.13582 8.17257C4.02162 8.21988 3.92401 8.29999 3.85533 8.40277C3.78666 8.50555 3.75 8.62639 3.75 8.75C3.75 8.91576 3.81585 9.07473 3.93306 9.19194C4.05027 9.30915 4.20924 9.375 4.375 9.375ZM4.375 11.875C4.49861 11.875 4.61945 11.8383 4.72223 11.7697C4.82501 11.701 4.90512 11.6034 4.95242 11.4892C4.99973 11.375 5.01211 11.2493 4.98799 11.1281C4.96388 11.0068 4.90435 10.8955 4.81694 10.8081C4.72953 10.7206 4.61817 10.6611 4.49693 10.637C4.37569 10.6129 4.25003 10.6253 4.13582 10.6726C4.02162 10.7199 3.92401 10.8 3.85533 10.9028C3.78666 11.0055 3.75 11.1264 3.75 11.25C3.75 11.4158 3.81585 11.5747 3.93306 11.6919C4.05027 11.8092 4.20924 11.875 4.375 11.875Z" fill="#62B8B1"/>
</svg>
