<svg width="280" height="25" viewBox="0 0 280 25" fill="none" xmlns="http://www.w3.org/2000/svg">
<path d="M12.0951 24.1802C5.42679 24.1802 0 18.7635 0 12.0951C0 5.42679 5.42679 0 12.0951 0H267.905C274.573 0 280 5.42679 280 12.0951C280 18.7635 274.573 24.1902 267.905 24.1902H12.0951V24.1802Z" fill="#53BFB5"/>
<path d="M12.0952 21.3968C6.96875 21.3968 2.79353 17.2216 2.79353 12.0952C2.79353 6.96875 6.96875 2.79353 12.0952 2.79353H267.905C273.031 2.79353 277.207 6.96875 277.207 12.0952C277.207 17.2216 273.031 21.3968 267.905 21.3968H12.0952Z" fill="white"/>
<path d="M202.243 7.05887L196.856 17.1215H12.195C9.07111 17.1215 6.44783 14.9588 5.76698 12.0451C6.44783 9.18153 9.03106 7.05887 12.0949 7.05887H202.243Z" fill="#64BAB3"/>
<path d="M267.905 5.58694H203.044L196.065 18.6032H267.905C271.499 18.6032 274.413 15.6896 274.413 12.0951C274.413 8.50058 271.499 5.58694 267.905 5.58694Z" fill="#D3EDED"/>
<path d="M22.2378 5.58694L21.7572 7.05878L18.5031 17.1214L18.0225 18.6032H13.4969L13.9875 17.1214L17.4017 7.05878L17.8924 5.58694H22.2378Z" fill="#79D0C9"/>
<path d="M30.448 5.58694L29.9674 7.05878L26.7133 17.1214L26.2327 18.6032H21.6971L22.1977 17.1214L25.6019 7.05878L26.1026 5.58694H30.448Z" fill="#79D0C9"/>
<path d="M38.6484 5.58694L38.1678 7.05878L34.9138 17.1214L34.4332 18.6032H29.9075L30.4081 17.1214L33.8124 7.05878L34.313 5.58694H38.6484Z" fill="#79D0C9"/>
<path d="M46.8584 5.58694L46.3778 7.05878L43.1237 17.1214L42.6431 18.6032H38.1175L38.6081 17.1214L42.0124 7.05878L42.513 5.58694H46.8584Z" fill="#79D0C9"/>
<path d="M55.0586 5.58694L54.578 7.05878L51.3239 17.1214L50.8534 18.6032H46.3177L46.8183 17.1214L50.2226 7.05878L50.7232 5.58694H55.0586Z" fill="#79D0C9"/>
<path d="M63.2691 5.58694L62.7885 7.05878L59.5344 17.1214L59.0538 18.6032H54.5281L55.0188 17.1214L58.433 7.05878L58.9236 5.58694H63.2691Z" fill="#79D0C9"/>
<path d="M71.4793 5.58694L70.9887 7.05878L67.7346 17.1214L67.264 18.6032H62.7283L63.229 17.1214L66.6332 7.05878L67.1338 5.58694H71.4793Z" fill="#79D0C9"/>
<path d="M79.6797 5.58694L79.1991 7.05878L75.9451 17.1214L75.4645 18.6032H70.9388L71.4294 17.1214L74.8437 7.05878L75.3343 5.58694H79.6797Z" fill="#79D0C9"/>
<path d="M87.8899 5.58694L87.4093 7.05878L84.1452 17.1214L83.6747 18.6032H79.139L79.6396 17.1214L83.0439 7.05878L83.5445 5.58694H87.8899Z" fill="#79D0C9"/>
<path d="M96.0904 5.58694L95.6098 7.05878L92.3557 17.1214L91.8751 18.6032H87.3495L87.8501 17.1214L91.2543 7.05878L91.755 5.58694H96.0904Z" fill="#79D0C9"/>
<path d="M104.3 5.58694L103.82 7.05878L100.566 17.1314L100.085 18.6032H95.5594L96.05 17.1314L99.4543 7.05878L99.9549 5.58694H104.3Z" fill="#79D0C9"/>
<path d="M112.501 5.58694L112.02 7.05878L108.766 17.1314L108.295 18.6032H103.76L104.26 17.1314L107.665 7.05878L108.165 5.58694H112.501Z" fill="#79D0C9"/>
<path d="M120.711 5.58694L120.23 7.05878L116.976 17.1314L116.496 18.6032H111.97L112.461 17.1314L115.875 7.05878L116.366 5.58694H120.711Z" fill="#79D0C9"/>
<path d="M128.921 5.58694L128.431 7.06879L125.177 17.1314L124.706 18.6032H120.17L120.671 17.1314L124.075 7.06879L124.576 5.58694H128.921Z" fill="#79D0C9"/>
<path d="M137.122 5.58694L136.641 7.06879L133.387 17.1314L132.906 18.6032H128.381L128.871 17.1314L132.286 7.06879L132.776 5.58694H137.122Z" fill="#79D0C9"/>
<path d="M145.332 5.58694L144.851 7.06879L141.587 17.1314L141.117 18.6032H136.581L137.082 17.1314L140.486 7.06879L140.986 5.58694H145.332Z" fill="#79D0C9"/>
<path d="M153.532 5.58694L153.051 7.06879L149.797 17.1314L149.317 18.6032H144.791L145.292 17.1314L148.696 7.06879L149.196 5.58694H153.532Z" fill="#79D0C9"/>
<path d="M161.742 5.58694L161.262 7.06879L158.008 17.1314L157.527 18.6032H153.001L153.492 17.1314L156.896 7.06879L157.397 5.58694H161.742Z" fill="#79D0C9"/>
<path d="M169.942 5.58694L169.462 7.06879L166.208 17.1314L165.727 18.6032H161.202L161.702 17.1314L165.106 7.06879L165.607 5.58694H169.942Z" fill="#79D0C9"/>
<path d="M178.153 5.58694L177.672 7.06879L174.418 17.1314L173.938 18.6032H169.412L169.903 17.1314L173.317 7.06879L173.808 5.58694H178.153Z" fill="#79D0C9"/>
<path d="M186.363 5.58694L185.873 7.06879L182.618 17.1314L182.148 18.6032H177.612L178.113 17.1314L181.517 7.06879L182.018 5.58694H186.363Z" fill="#79D0C9"/>
<path d="M194.563 5.58694L194.083 7.06879L190.828 17.1314L190.348 18.6032H185.822L186.313 17.1314L189.727 7.06879L190.218 5.58694H194.563Z" fill="#79D0C9"/>
<path d="M203.034 5.58694L202.243 7.06879H12.0952C9.03137 7.06879 6.44814 9.19145 5.76729 12.055C5.73725 12.1852 5.70721 12.3154 5.68719 12.4455C5.66716 12.5757 5.64714 12.7159 5.62711 12.846C5.59708 12.6057 5.58706 12.3554 5.58706 12.1051C5.58706 8.5106 8.50071 5.59695 12.0952 5.59695H203.034V5.58694Z" fill="#64BAB3"/>
<path d="M196.856 17.1214L196.065 18.6033H12.0952C8.75106 18.6033 5.99762 16.0801 5.62715 12.8361C5.63717 12.6959 5.65719 12.5657 5.68723 12.4356C5.71727 12.3054 5.73729 12.1753 5.76733 12.0451C6.44818 14.9587 9.07146 17.1214 12.1954 17.1214H196.856Z" fill="#64BAB3"/>
<path d="M135.99 9.23151V10.1326L133.477 15.3291H131.965L134.478 10.423V10.403H131.685V9.23151H135.99Z" fill="white"/>
<path d="M141.327 12.2453C141.327 14.1276 140.566 15.4193 139.014 15.4193C137.442 15.4193 136.741 14.0075 136.731 12.2753C136.731 10.5131 137.482 9.11137 139.054 9.11137C140.686 9.12138 141.327 10.5732 141.327 12.2453ZM138.163 12.2853C138.153 13.6771 138.493 14.3479 139.044 14.3479C139.595 14.3479 139.895 13.6571 139.895 12.2653C139.895 10.9136 139.605 10.2027 139.034 10.2027C138.513 10.2027 138.153 10.8736 138.163 12.2853Z" fill="white"/>
<path d="M147.124 10.9336C147.124 12.2052 146.313 12.8761 145.432 12.8761C144.501 12.8761 143.77 12.1852 143.77 11.0438C143.77 9.95241 144.43 9.13139 145.472 9.13139C146.533 9.12137 147.124 9.89234 147.124 10.9336ZM144.841 11.0037C144.841 11.6445 145.061 12.1051 145.472 12.1051C145.872 12.1051 146.072 11.6946 146.072 11.0037C146.072 10.383 145.902 9.90235 145.462 9.90235C145.031 9.90235 144.841 10.393 144.841 11.0037ZM145.512 15.4293L149.006 9.13139H149.777L146.273 15.4293H145.512ZM151.509 13.4668C151.509 14.7384 150.698 15.4092 149.817 15.4092C148.896 15.4092 148.165 14.7184 148.155 13.5769C148.155 12.4856 148.816 11.6646 149.857 11.6646C150.919 11.6545 151.509 12.4255 151.509 13.4668ZM149.236 13.5269C149.226 14.1677 149.447 14.6283 149.857 14.6283C150.258 14.6283 150.458 14.2177 150.458 13.5269C150.458 12.9061 150.298 12.4255 149.857 12.4255C149.427 12.4355 149.236 12.9261 149.236 13.5269Z" fill="white"/>
<path d="M262.748 10.9336C262.748 12.2052 261.937 12.8761 261.056 12.8761C260.125 12.8761 259.394 12.1852 259.394 11.0438C259.394 9.95241 260.055 9.13139 261.096 9.13139C262.158 9.12137 262.748 9.89234 262.748 10.9336ZM260.466 11.0037C260.466 11.6445 260.686 12.1051 261.096 12.1051C261.497 12.1051 261.697 11.6946 261.697 11.0037C261.697 10.383 261.527 9.90235 261.086 9.90235C260.656 9.90235 260.466 10.393 260.466 11.0037ZM261.136 15.4293L264.631 9.13139H265.402L261.897 15.4293H261.136ZM267.134 13.4668C267.134 14.7384 266.323 15.4092 265.442 15.4092C264.521 15.4092 263.79 14.7184 263.78 13.5769C263.78 12.4856 264.44 11.6646 265.482 11.6646C266.543 11.6545 267.134 12.4255 267.134 13.4668ZM264.861 13.5269C264.851 14.1677 265.071 14.6283 265.482 14.6283C265.882 14.6283 266.083 14.2177 266.083 13.5269C266.083 12.9061 265.922 12.4255 265.482 12.4255C265.051 12.4355 264.861 12.9261 264.861 13.5269Z" fill="white"/>
<path d="M17.612 12.2453C17.612 14.1276 16.8511 15.4193 15.2991 15.4193C13.7272 15.4193 13.0263 14.0075 13.0163 12.2753C13.0163 10.5131 13.7672 9.11137 15.3392 9.11137C16.9712 9.12138 17.612 10.5732 17.612 12.2453ZM14.4481 12.2853C14.4381 13.6771 14.7785 14.3479 15.3292 14.3479C15.8799 14.3479 16.1802 13.6571 16.1802 12.2653C16.1802 10.9136 15.8899 10.2027 15.3192 10.2027C14.7985 10.2027 14.4381 10.8736 14.4481 12.2853Z" fill="white"/>
<path d="M23.4091 10.9336C23.4091 12.2052 22.598 12.8761 21.7169 12.8761C20.7858 12.8761 20.0549 12.1852 20.0549 11.0438C20.0549 9.95241 20.7157 9.13139 21.757 9.13139C22.8183 9.12137 23.4091 9.89234 23.4091 10.9336ZM21.1262 11.0037C21.1262 11.6445 21.3465 12.1051 21.757 12.1051C22.1575 12.1051 22.3577 11.6946 22.3577 11.0037C22.3577 10.383 22.1875 9.90235 21.747 9.90235C21.3164 9.90235 21.1262 10.393 21.1262 11.0037ZM21.797 15.4293L25.2914 9.13139H26.0624L22.558 15.4293H21.797ZM27.7945 13.4668C27.7945 14.7384 26.9835 15.4092 26.1024 15.4092C25.1813 15.4092 24.4504 14.7184 24.4403 13.5769C24.4403 12.4856 25.1012 11.6646 26.1425 11.6646C27.2038 11.6545 27.7945 12.4255 27.7945 13.4668ZM25.5217 13.5269C25.5117 14.1677 25.732 14.6283 26.1425 14.6283C26.543 14.6283 26.7432 14.2177 26.7432 13.5269C26.7432 12.9061 26.583 12.4255 26.1425 12.4255C25.7119 12.4355 25.5217 12.9261 25.5217 13.5269Z" fill="white"/>
</svg>
