<svg width="22" height="22" viewBox="0 0 22 22" fill="none" xmlns="http://www.w3.org/2000/svg">
<path d="M5.5 20.1667H19.25V18.3334H5.511C5.0875 18.3224 4.58333 18.1546 4.58333 17.4167C4.58333 16.6788 5.0875 16.511 5.511 16.5H19.25V3.66671C19.25 2.65562 18.4278 1.83337 17.4167 1.83337H5.5C4.3945 1.83337 2.75 2.56579 2.75 4.58337V17.4167C2.75 19.4343 4.3945 20.1667 5.5 20.1667ZM4.58333 7.33337V4.58337C4.58333 3.84546 5.0875 3.67771 5.5 3.66671H17.4167V14.6667H4.58333V7.33337Z" fill="white"/>
<path d="M7.3335 5.5H15.5835V7.33333H7.3335V5.5Z" fill="white"/>
</svg>
