<svg width="38" height="53" viewBox="0 0 38 53" fill="none" xmlns="http://www.w3.org/2000/svg">
<g filter="url(#filter0_b_212_251)">
<rect x="0.75" y="0.75" width="36.3571" height="51.5" rx="17.8835" stroke="#D3EDED" stroke-width="1.5"/>
</g>
<path d="M16.4977 13.4031V24.6071H14.0624V15.6516H13.9949L11.3572 17.26V15.1592L14.2086 13.4031H16.4977Z" fill="#364356"/>
<path d="M19.2352 24.6071V22.9003L23.3352 19.2075C23.6839 18.8793 23.9764 18.5839 24.2126 18.3213C24.4525 18.0587 24.6344 17.8016 24.7581 17.5499C24.8819 17.2946 24.9437 17.0193 24.9437 16.7239C24.9437 16.3956 24.8669 16.113 24.7131 15.8759C24.5594 15.6352 24.3494 15.451 24.0832 15.3234C23.817 15.1921 23.5152 15.1264 23.1777 15.1264C22.8253 15.1264 22.5178 15.1957 22.2554 15.3343C21.9929 15.4729 21.7904 15.6717 21.648 15.9306C21.5055 16.1895 21.4342 16.4977 21.4342 16.8551H19.1227C19.1227 16.1221 19.2933 15.4857 19.6345 14.9459C19.9757 14.4061 20.4538 13.9885 21.0687 13.6931C21.6836 13.3977 22.3922 13.25 23.1946 13.25C24.0195 13.25 24.7375 13.3922 25.3487 13.6767C25.9636 13.9575 26.4416 14.3478 26.7828 14.8474C27.124 15.3471 27.2946 15.9197 27.2946 16.5652C27.2946 16.9883 27.2084 17.4059 27.0359 17.818C26.8672 18.2301 26.5653 18.6878 26.1304 19.1911C25.6955 19.6908 25.0824 20.2907 24.2913 20.991L22.6097 22.5939V22.6705H27.4465V24.6071H19.2352Z" fill="#364356"/>
<path d="M15.1428 39.75V32.1785H19.5123V33.1619H16.2059V35.4688H19.1992V36.4485H16.2059V39.75H15.1428Z" fill="#818A98"/>
<path d="M20.8324 39.75V34.0714H21.8268V34.9735H21.8818C21.9781 34.6678 22.1479 34.4275 22.391 34.2525C22.6364 34.0751 22.914 33.9864 23.2236 33.9864C23.2879 33.9864 23.3636 33.9888 23.4507 33.9938C23.5402 33.9987 23.6101 34.0048 23.6606 34.0122V35.0696C23.6193 35.0572 23.5459 35.0437 23.4404 35.0289C23.3349 35.0117 23.2294 35.003 23.1239 35.003C22.8807 35.003 22.664 35.0585 22.4736 35.1694C22.2855 35.2778 22.1364 35.4294 22.0263 35.6241C21.9162 35.8164 21.8612 36.0357 21.8612 36.2822V39.75H20.8324Z" fill="#818A98"/>
<defs>
<filter id="filter0_b_212_251" x="-10.1583" y="-10.1583" width="58.1738" height="73.3167" filterUnits="userSpaceOnUse" color-interpolation-filters="sRGB">
<feFlood flood-opacity="0" result="BackgroundImageFix"/>
<feGaussianBlur in="BackgroundImageFix" stdDeviation="5"/>
<feComposite in2="SourceAlpha" operator="in" result="effect1_backgroundBlur_212_251"/>
<feBlend mode="normal" in="SourceGraphic" in2="effect1_backgroundBlur_212_251" result="shape"/>
</filter>
</defs>
</svg>
