<svg width="38" height="53" viewBox="0 0 38 53" fill="none" xmlns="http://www.w3.org/2000/svg">
<g filter="url(#filter0_b_212_247)">
<rect width="37.8571" height="53" rx="18.6335" fill="#519E98"/>
</g>
<path d="M17.2105 13.25V24.6071H14.8859V15.5292H14.8215L12.3036 17.1595V15.0301L15.0255 13.25H17.2105Z" fill="white"/>
<path d="M24.6071 13.25V24.6071H22.2825V15.5292H22.2181L19.7002 17.1595V15.0301L22.4221 13.25H24.6071Z" fill="white"/>
<path d="M14.1964 33.1619V32.1785H19.2686V33.1619H17.2237V39.75H16.2381V33.1619H14.1964Z" fill="#EBF3FE"/>
<path d="M21.4197 36.3783V39.75H20.4629V32.1785H21.4069V34.9956H21.4677C21.5829 34.69 21.7589 34.4472 21.9957 34.2673C22.2325 34.0874 22.5419 33.9974 22.9238 33.9974C23.2609 33.9974 23.5553 34.0775 23.807 34.2378C24.0609 34.398 24.2572 34.637 24.3959 34.955C24.5367 35.2704 24.6071 35.6648 24.6071 36.138V39.75H23.6502V36.2711C23.6502 35.8546 23.5574 35.5317 23.3718 35.3025C23.1862 35.0708 22.928 34.955 22.5974 34.955C22.3712 34.955 22.1685 35.0104 21.9893 35.1213C21.8123 35.2322 21.6725 35.3949 21.5701 35.6093C21.4698 35.8213 21.4197 36.0776 21.4197 36.3783Z" fill="#EBF3FE"/>
<defs>
<filter id="filter0_b_212_247" x="-10.1583" y="-10.1583" width="58.1738" height="73.3167" filterUnits="userSpaceOnUse" color-interpolation-filters="sRGB">
<feFlood flood-opacity="0" result="BackgroundImageFix"/>
<feGaussianBlur in="BackgroundImageFix" stdDeviation="5"/>
<feComposite in2="SourceAlpha" operator="in" result="effect1_backgroundBlur_212_247"/>
<feBlend mode="normal" in="SourceGraphic" in2="effect1_backgroundBlur_212_247" result="shape"/>
</filter>
</defs>
</svg>
