<svg width="107" height="19" viewBox="0 0 107 19" fill="none" xmlns="http://www.w3.org/2000/svg">
<rect x="66.4136" width="18.4483" height="18.4483" fill="#00B67A"/>
<rect x="22.1377" width="18.4483" height="18.4483" fill="#00B67A"/>
<rect width="18.4483" height="18.4483" fill="#00B67A"/>
<rect x="88.5518" width="18.4483" height="18.4483" fill="#D9D9D9"/>
<rect x="44.2759" width="18.4483" height="18.4483" fill="#00B67A"/>
<path d="M16.3951 8.05509H10.8388L9.12253 2.76733L7.40099 8.05509L1.84473 8.04982L6.34449 11.3211L4.62277 16.6035L9.12253 13.3376L13.6168 16.6035L11.9006 11.3211L16.3951 8.05509Z" fill="white"/>
<path d="M12.2886 12.5279L11.9018 11.3367L9.11963 13.3452L12.2886 12.5279Z" fill="#D5D5D5"/>
<path d="M38.5332 8.05509H32.977L31.2607 2.76733L29.5392 8.05509L23.9829 8.04982L28.4827 11.3211L26.761 16.6035L31.2607 13.3376L35.755 16.6035L34.0388 11.3211L38.5332 8.05509Z" fill="white"/>
<path d="M34.4272 12.5279L34.0405 11.3367L31.2583 13.3452L34.4272 12.5279Z" fill="#D5D5D5"/>
<path d="M60.6709 8.05509H55.1147L53.3984 2.76733L51.6769 8.05509L46.1206 8.04982L50.6204 11.3211L48.8986 16.6035L53.3984 13.3376L57.8927 16.6035L56.1765 11.3211L60.6709 8.05509Z" fill="white"/>
<path d="M56.5644 12.5279L56.1777 11.3367L53.3955 13.3452L56.5644 12.5279Z" fill="#D5D5D5"/>
<path d="M82.8086 8.05509H77.2524L75.5361 2.76733L73.8146 8.05509L68.2583 8.04982L72.7581 11.3211L71.0363 16.6035L75.5361 13.3376L80.0304 16.6035L78.3141 11.3211L82.8086 8.05509Z" fill="white"/>
<path d="M78.7026 12.5279L78.3159 11.3367L75.5337 13.3452L78.7026 12.5279Z" fill="#D5D5D5"/>
<path d="M104.947 8.05509H99.3906L97.6743 2.76733L95.9527 8.05509L90.3965 8.04982L94.8962 11.3211L93.1745 16.6035L97.6743 13.3376L102.169 16.6035L100.452 11.3211L104.947 8.05509Z" fill="white"/>
<path d="M100.841 12.5279L100.454 11.3367L97.6719 13.3452L100.841 12.5279Z" fill="#D5D5D5"/>
</svg>
