<svg width="22" height="22" viewBox="0 0 22 22" fill="none" xmlns="http://www.w3.org/2000/svg">
<path d="M5.5 20.1666H19.25V18.3333H5.511C5.0875 18.3223 4.58333 18.1545 4.58333 17.4166C4.58333 16.6787 5.0875 16.5109 5.511 16.4999H19.25V3.66659C19.25 2.6555 18.4278 1.83325 17.4167 1.83325H5.5C4.3945 1.83325 2.75 2.56567 2.75 4.58325V17.4166C2.75 19.4342 4.3945 20.1666 5.5 20.1666ZM4.58333 7.33325V4.58325C4.58333 3.84534 5.0875 3.67759 5.5 3.66659H17.4167V14.6666H4.58333V7.33325Z" fill="#BBBCC7"/>
<path d="M7.3335 5.5H15.5835V7.33333H7.3335V5.5Z" fill="#BBBCC7"/>
</svg>
