<svg width="24" height="24" viewBox="0 0 24 24" fill="none" xmlns="http://www.w3.org/2000/svg">
<path d="M16.5 22H7.5C6.70435 22 5.94129 21.6839 5.37868 21.1213C4.81607 20.5587 4.5 19.7956 4.5 19V5C4.5 4.20435 4.81607 3.44129 5.37868 2.87868C5.94129 2.31607 6.70435 2 7.5 2H14.09C14.3523 2.0011 14.6037 2.10526 14.79 2.29L19.21 6.71C19.3947 6.89626 19.4989 7.14766 19.5 7.41V19C19.5 19.7956 19.1839 20.5587 18.6213 21.1213C18.0587 21.6839 17.2956 22 16.5 22Z" fill="#F44336"/>
<path d="M18.8002 7.74008H15.2002C14.8024 7.74008 14.4208 7.58205 14.1395 7.30074C13.8582 7.01944 13.7002 6.63791 13.7002 6.24008V2.64008C13.6998 2.53098 13.7318 2.42422 13.7922 2.33337C13.8526 2.24252 13.9387 2.17169 14.0394 2.12988C14.1402 2.08807 14.2511 2.07718 14.3581 2.09858C14.4651 2.11998 14.5633 2.17272 14.6402 2.25008L19.1902 6.80008C19.2676 6.87701 19.3203 6.9752 19.3417 7.08218C19.3631 7.18916 19.3522 7.30009 19.3104 7.40086C19.2686 7.50163 19.1978 7.58768 19.1069 7.64809C19.0161 7.70849 18.9093 7.74052 18.8002 7.74008Z" fill="#FF8A80"/>
<path d="M7.89016 19.1301C7.82085 19.1401 7.75015 19.1339 7.68368 19.1118C7.61721 19.0897 7.55681 19.0525 7.50729 19.0029C7.45777 18.9534 7.42049 18.893 7.39842 18.8265C7.37635 18.7601 7.37009 18.6894 7.38016 18.6201V15.6901C7.37044 15.6217 7.37659 15.552 7.39813 15.4864C7.41967 15.4208 7.45601 15.361 7.50435 15.3117C7.55269 15.2624 7.61173 15.2249 7.6769 15.2021C7.74207 15.1792 7.81162 15.1717 7.88016 15.1801C7.94167 15.1731 8.00394 15.179 8.06308 15.1972C8.12223 15.2155 8.17698 15.2457 8.2239 15.2861C8.27083 15.3264 8.30893 15.376 8.33582 15.4318C8.3627 15.4875 8.3778 15.5482 8.38016 15.6101C8.46079 15.4697 8.58311 15.3578 8.73016 15.2901C8.88759 15.2084 9.06284 15.1672 9.24016 15.1701C9.46641 15.1669 9.68872 15.2294 9.88016 15.3501C10.0688 15.476 10.2179 15.6528 10.3102 15.8601C10.4161 16.1082 10.4707 16.3752 10.4707 16.6451C10.4707 16.9149 10.4161 17.1819 10.3102 17.4301C10.1738 17.7079 9.9354 17.9223 9.6447 18.0286C9.35401 18.1348 9.03351 18.1246 8.75016 18.0001C8.60837 17.9338 8.48735 17.8301 8.40016 17.7001V18.6101C8.40594 18.6789 8.39737 18.7483 8.37499 18.8137C8.35262 18.8791 8.31692 18.9392 8.27016 18.9901C8.2194 19.0376 8.15962 19.0745 8.09435 19.0986C8.02908 19.1226 7.95964 19.1333 7.89016 19.1301ZM8.89016 17.3701C8.96301 17.3709 9.03508 17.3551 9.10092 17.3239C9.16676 17.2927 9.22463 17.2469 9.27016 17.1901C9.38163 17.0296 9.43135 16.8343 9.41016 16.6401C9.43045 16.4459 9.38081 16.2509 9.27016 16.0901C9.22275 16.0361 9.16427 15.993 9.09869 15.9636C9.03312 15.9343 8.96199 15.9194 8.89016 15.9201C8.81675 15.9187 8.7439 15.9331 8.67659 15.9625C8.60928 15.9918 8.5491 16.0353 8.50016 16.0901C8.39472 16.2532 8.34555 16.4464 8.36016 16.6401C8.34403 16.8339 8.39333 17.0275 8.50016 17.1901C8.54969 17.2526 8.61403 17.3018 8.68737 17.3332C8.7607 17.3647 8.84071 17.3773 8.92016 17.3701H8.89016Z" fill="#FFEBEE"/>
<path d="M12.1699 18.11C11.9476 18.1184 11.7279 18.0591 11.5399 17.94C11.3483 17.8147 11.1959 17.6379 11.0999 17.43C10.994 17.1818 10.9395 16.9148 10.9395 16.645C10.9395 16.3752 10.994 16.1082 11.0999 15.86C11.1959 15.6521 11.3483 15.4753 11.5399 15.35C11.7271 15.228 11.9466 15.1652 12.1699 15.17C12.3439 15.1684 12.5157 15.2096 12.6699 15.29C12.8081 15.3527 12.9285 15.4489 13.0199 15.57V14.48C13.0099 14.4107 13.0161 14.34 13.0382 14.2735C13.0603 14.2071 13.0976 14.1467 13.1471 14.0971C13.1966 14.0476 13.257 14.0103 13.3235 13.9883C13.3899 13.9662 13.4606 13.9599 13.5299 13.97C13.5972 13.965 13.6649 13.974 13.7285 13.9964C13.7922 14.0187 13.8506 14.054 13.8999 14.1C13.9467 14.1509 13.9824 14.211 14.0048 14.2764C14.0272 14.3418 14.0357 14.4111 14.0299 14.48V17.59C14.0406 17.7226 13.9981 17.854 13.9118 17.9553C13.8255 18.0565 13.7026 18.1194 13.5699 18.13C13.5043 18.1353 13.4382 18.1275 13.3756 18.1072C13.3129 18.087 13.2548 18.0546 13.2047 18.0118C13.1034 17.9256 13.0406 17.8026 13.0299 17.67C12.953 17.8097 12.8341 17.9217 12.6899 17.99C12.5286 18.0706 12.3503 18.1117 12.1699 18.11ZM12.4999 17.37C12.5728 17.3708 12.6449 17.355 12.7107 17.3238C12.7765 17.2926 12.8344 17.2469 12.8799 17.19C12.9958 17.0313 13.0492 16.8355 13.0299 16.64C13.0473 16.4446 12.9941 16.2495 12.8799 16.09C12.8325 16.036 12.7741 15.9929 12.7085 15.9636C12.6429 15.9342 12.5718 15.9194 12.4999 15.92C12.428 15.9187 12.3567 15.9333 12.291 15.9626C12.2253 15.992 12.1669 16.0355 12.1199 16.09C12.0058 16.2495 11.9526 16.4446 11.9699 16.64C11.9507 16.8355 12.0041 17.0313 12.1199 17.19C12.1644 17.2481 12.2221 17.2947 12.2882 17.326C12.3543 17.3573 12.4269 17.3724 12.4999 17.37Z" fill="#FFEBEE"/>
<path d="M15.5202 18.0999C15.4513 18.1079 15.3814 18.1002 15.3159 18.0774C15.2504 18.0546 15.1909 18.0173 15.1418 17.9682C15.0928 17.9192 15.0554 17.8597 15.0326 17.7942C15.0098 17.7286 15.0022 17.6588 15.0102 17.5899V15.9999H14.8602C14.8079 16.0081 14.7545 16.0041 14.7042 15.988C14.6538 15.972 14.6079 15.9444 14.57 15.9076C14.5322 15.8707 14.5034 15.8255 14.4861 15.7755C14.4688 15.7256 14.4633 15.6723 14.4702 15.6199C14.4702 15.3699 14.6002 15.2499 14.8602 15.2499H15.0002C14.9958 15.0895 15.0236 14.9299 15.082 14.7805C15.1404 14.631 15.2282 14.4948 15.3402 14.3799C15.5982 14.1608 15.922 14.0341 16.2602 14.0199H16.4302C16.5232 13.9826 16.6271 13.9826 16.7202 14.0199C16.7876 14.0584 16.8404 14.1182 16.8702 14.1899C16.885 14.2625 16.885 14.3373 16.8702 14.4099C16.8586 14.4804 16.8274 14.5463 16.7802 14.5999C16.7357 14.6557 16.671 14.6917 16.6002 14.6999H16.5202C16.374 14.6933 16.2297 14.7356 16.1102 14.8199C16.0714 14.8612 16.0416 14.91 16.0227 14.9634C16.0038 15.0167 15.9961 15.0734 16.0002 15.1299V15.2199H16.3202C16.5802 15.2199 16.7102 15.3399 16.7102 15.5899C16.717 15.6423 16.7116 15.6956 16.6942 15.7455C16.6769 15.7955 16.6482 15.8407 16.6103 15.8776C16.5725 15.9144 16.5265 15.942 16.4762 15.958C16.4258 15.9741 16.3724 15.9781 16.3202 15.9699H16.0002V17.5699C16.0127 17.6379 16.0094 17.7079 15.9905 17.7745C15.9716 17.841 15.9376 17.9023 15.8912 17.9535C15.8447 18.0048 15.7871 18.0447 15.7228 18.0701C15.6584 18.0954 15.5891 18.1057 15.5202 18.0999Z" fill="#FFEBEE"/>
</svg>
