<svg width="16" height="16" viewBox="0 0 16 16" fill="none" xmlns="http://www.w3.org/2000/svg">
<path d="M7.9935 1.33325C4.3135 1.33325 1.3335 4.31992 1.3335 7.99992C1.3335 11.6799 4.3135 14.6666 7.9935 14.6666C11.6802 14.6666 14.6668 11.6799 14.6668 7.99992C14.6668 4.31992 11.6802 1.33325 7.9935 1.33325ZM8.00016 13.3333C5.0535 13.3333 2.66683 10.9466 2.66683 7.99992C2.66683 5.05325 5.0535 2.66659 8.00016 2.66659C10.9468 2.66659 13.3335 5.05325 13.3335 7.99992C13.3335 10.9466 10.9468 13.3333 8.00016 13.3333ZM7.8535 4.66658H7.8135C7.54683 4.66658 7.3335 4.87992 7.3335 5.14658V8.29325C7.3335 8.52658 7.4535 8.74658 7.66016 8.86658L10.4268 10.5266C10.6535 10.6599 10.9468 10.5933 11.0802 10.3666C11.1136 10.3126 11.1359 10.2524 11.1456 10.1897C11.1554 10.1269 11.1524 10.0628 11.1368 10.0012C11.1213 9.93965 11.0935 9.88182 11.0551 9.8312C11.0168 9.78058 10.9686 9.7382 10.9135 9.70658L8.3335 8.17325V5.14658C8.3335 4.87992 8.12016 4.66658 7.8535 4.66658Z" fill="#519E98"/>
</svg>
