<svg width="38" height="53" viewBox="0 0 38 53" fill="none" xmlns="http://www.w3.org/2000/svg">
<g filter="url(#filter0_b_212_243)">
<rect x="0.75" y="0.75" width="36.3571" height="51.5" rx="17.8835" stroke="#D3EDED" stroke-width="1.5"/>
</g>
<path d="M15.5483 13.3999V24.3661H13.1145V15.6006H13.047L10.4108 17.1749V15.1187L13.2606 13.3999H15.5483Z" fill="#364356"/>
<path d="M22.7979 24.6071C21.8311 24.6035 20.9992 24.3769 20.3022 23.9271C19.609 23.4773 19.075 22.8258 18.7003 21.9726C18.3293 21.1195 18.1457 20.0932 18.1494 18.8937C18.1494 17.6979 18.3349 16.6787 18.7059 15.8362C19.0806 14.9938 19.6146 14.353 20.3079 13.9139C21.0049 13.4713 21.8349 13.25 22.7979 13.25C23.761 13.25 24.5891 13.4713 25.2824 13.9139C25.9794 14.3566 26.5152 14.9991 26.89 15.8416C27.2647 16.6805 27.4502 17.6979 27.4464 18.8937C27.4464 20.0967 27.2591 21.1248 26.8843 21.978C26.5134 22.8312 25.9813 23.4826 25.288 23.9324C24.5948 24.3822 23.7647 24.6071 22.7979 24.6071ZM22.7979 22.6848C23.4575 22.6848 23.9839 22.3689 24.3774 21.737C24.7709 21.1052 24.9657 20.1574 24.962 18.8937C24.962 18.062 24.8721 17.3695 24.6922 16.8161C24.5161 16.2628 24.265 15.847 23.939 15.5685C23.6167 15.2901 23.2364 15.1509 22.7979 15.1509C22.1422 15.1509 21.6175 15.4632 21.2241 16.0879C20.8306 16.7126 20.632 17.6479 20.6282 18.8937C20.6282 19.7362 20.7163 20.4394 20.8924 21.0034C21.0723 21.5639 21.3252 21.9851 21.6513 22.2671C21.9773 22.5456 22.3595 22.6848 22.7979 22.6848Z" fill="#364356"/>
<path d="M14.2644 39.6371L12.3036 32.1785H13.4255L14.8029 37.9545H14.8685L16.3011 32.1785H17.4126L18.8453 37.9582H18.9108L20.2848 32.1785H21.4101L19.4459 39.6371H18.3723L16.8845 34.0504H16.8292L15.3414 39.6371H14.2644Z" fill="#818A98"/>
<path d="M24.2251 39.75C23.7027 39.75 23.2527 39.6322 22.8753 39.3967C22.5002 39.1588 22.2102 38.8249 22.0054 38.3952C21.8029 37.963 21.7016 37.4568 21.7016 36.8765C21.7016 36.3035 21.8029 35.7985 22.0054 35.3615C22.2102 34.9245 22.4956 34.5834 22.8615 34.3382C23.2297 34.0929 23.6601 33.9703 24.1526 33.9703C24.4518 33.9703 24.7417 34.0225 25.0225 34.1269C25.3033 34.2313 25.5553 34.3952 25.7785 34.6186C26.0017 34.8419 26.1778 35.1321 26.3067 35.489C26.4356 35.8435 26.5 36.2744 26.5 36.7818V37.1679H22.285V36.3521H25.4885C25.4885 36.0656 25.4333 35.8119 25.3228 35.591C25.2124 35.3676 25.057 35.1916 24.8568 35.0629C24.6589 34.9342 24.4265 34.8699 24.1595 34.8699C23.8695 34.8699 23.6164 34.9451 23.4 35.0957C23.186 35.2438 23.0203 35.438 22.9029 35.6784C22.7879 35.9163 22.7303 36.1749 22.7303 36.4541V37.0914C22.7303 37.4653 22.7925 37.7834 22.9167 38.0456C23.0433 38.3078 23.2194 38.5081 23.4449 38.6465C23.6704 38.7824 23.934 38.8504 24.2354 38.8504C24.4311 38.8504 24.6094 38.8213 24.7705 38.763C24.9316 38.7023 25.0708 38.6125 25.1882 38.4935C25.3056 38.3745 25.3953 38.2277 25.4575 38.0528L26.4344 38.2386C26.3562 38.5421 26.2158 38.8079 26.0133 39.0362C25.813 39.2619 25.561 39.438 25.2572 39.5642C24.9558 39.688 24.6117 39.75 24.2251 39.75Z" fill="#818A98"/>
<defs>
<filter id="filter0_b_212_243" x="-10.1583" y="-10.1583" width="58.1738" height="73.3167" filterUnits="userSpaceOnUse" color-interpolation-filters="sRGB">
<feFlood flood-opacity="0" result="BackgroundImageFix"/>
<feGaussianBlur in="BackgroundImageFix" stdDeviation="5"/>
<feComposite in2="SourceAlpha" operator="in" result="effect1_backgroundBlur_212_243"/>
<feBlend mode="normal" in="SourceGraphic" in2="effect1_backgroundBlur_212_243" result="shape"/>
</filter>
</defs>
</svg>
